<?xml version="1.0" encoding="utf-8"?>
<!-- Generator: Adobe Illustrator 20.1.0, SVG Export Plug-In . SVG Version: 6.00 Build 0)  -->
<svg version="1.1" id="Layer_1" xmlns="http://www.w3.org/2000/svg" xmlns:xlink="http://www.w3.org/1999/xlink" x="0px" y="0px"
	 viewBox="0 0 247.2 172.9" style="enable-background:new 0 0 247.2 172.9;" xml:space="preserve">
<style type="text/css">
	.st0{fill:#FF8A65;}
</style>
<path class="st0" d="M89,93c3.6-2.8,8.1-1,12-2.1c1.3-1,2-2.2,1.7-4.1c-2.1-4-7.5-3-10.3-6.2c-1-2.1-0.3-3.5,1.9-4.5
	c3.5-0.1,6.3,2.5,9.5,2.9c2.5-0.9,2.3-3.8,4.7-5.2c10.2,4.5,20.9,4.9,31.2,0c2.6,0.9,2.5,3.8,4.8,5.1c3.1,0,5.8-2.5,9.2-2.8
	c1.6,0.2,2.5,1.2,3,2.8c0,1.3-0.7,2.4-1.7,2.9c-1.9,0.9-4,1.5-6,2.4c-3.4,1.5-3.7,2.9-1.6,6.5c3.9,2,9.5-1.7,12.7,3.8
	c-2.9,5.8-8.3,2-12.2,3.8c-2.9,3.5-2.6,5.4,1.5,7.4c2.1,1,4.2,1.9,6.3,2.9c0.3,0.1,0.5,0.4,0.7,0.7c0.3,2.6,0.3,2.6-1.5,4.7
	c-4.1,0.3-7.1-3.4-11.8-3.3c-4.3,6.5-10.3,11.9-18.6,12.1c-8.4,0.1-14.3-5.5-18.8-11.8c-4.9-0.9-8.1,4.2-12.4,2.9
	c-1.7-1.3-1.8-2.7-1.2-4.3c2.9-3.4,8.8-2.5,10.6-7c0.3-2.1-0.6-3.2-1.9-4.2c-3.9-1.3-8.4,1-11.9-2.2C89,95,89,94,89,93z"/>
<path class="st0" d="M115.6,62.3c-0.7-1.1-1.5-1.6-2.4-2.1c-3.4-2.1-4.1-4-2.6-6.3c1.7-2.5,3.9-2.3,7.2,0.5c0.1,0.7,0.2,1.5,0.3,2.3
	c0,0.8,0,1.7,0,2.3c2.8,3.8,5,4.9,8.4,3.9c4.3-1.3,4.4-4.9,4.4-8.3c3.1-3.1,5.3-3.3,7.1-1c1.9,2.4,1,4-4.5,8.2
	c-0.6,3.4-0.6,3.4,2.6,8.9c-7.8,3.4-15.3,3.2-23.3,0.2C113.7,67.8,117.1,66,115.6,62.3z"/>
</svg>
