<?xml version="1.0" encoding="UTF-8" standalone="no"?>
<!-- Generator: Adobe Illustrator 13.0.0, SVG Export Plug-In . SVG Version: 6.00 Build 14948)  -->

<svg
   xmlns:dc="http://purl.org/dc/elements/1.1/"
   xmlns:cc="http://creativecommons.org/ns#"
   xmlns:rdf="http://www.w3.org/1999/02/22-rdf-syntax-ns#"
   xmlns:svg="http://www.w3.org/2000/svg"
   xmlns="http://www.w3.org/2000/svg"
   xmlns:sodipodi="http://sodipodi.sourceforge.net/DTD/sodipodi-0.dtd"
   xmlns:inkscape="http://www.inkscape.org/namespaces/inkscape"
   version="1.1"
   id="Layer_1"
   x="0px"
   y="0px"
   width="225.938px"
   height="407.407px"
   viewBox="0 0 225.938 407.407"
   enable-background="new 0 0 225.938 407.407"
   xml:space="preserve"
   inkscape:version="0.91 r13725"
   sodipodi:docname="duke_waving_reverse.svg"><metadata
     id="metadata3498"><rdf:RDF><cc:Work
         rdf:about=""><dc:format>image/svg+xml</dc:format><dc:type
           rdf:resource="http://purl.org/dc/dcmitype/StillImage" /><dc:title></dc:title></cc:Work></rdf:RDF></metadata><defs
     id="defs3496" /><sodipodi:namedview
     pagecolor="#ffffff"
     bordercolor="#666666"
     borderopacity="1"
     objecttolerance="10"
     gridtolerance="10"
     guidetolerance="10"
     inkscape:pageopacity="0"
     inkscape:pageshadow="2"
     inkscape:window-width="2075"
     inkscape:window-height="1394"
     id="namedview3494"
     showgrid="false"
     inkscape:zoom="3.0141847"
     inkscape:cx="112.63724"
     inkscape:cy="203.70351"
     inkscape:window-x="0"
     inkscape:window-y="0"
     inkscape:window-maximized="0"
     inkscape:current-layer="Layer_1" /><path
     fill-rule="evenodd"
     clip-rule="evenodd"
     d="M48.859,43.518c8.424,17.64,2.736,140.832-7.128,184.032  c-9.864,43.272-19.728,98.28-22.032,144.576c-1.008,19.728,2.016,27.504,14.904,27.504c22.752,0,51.624-47.952,87.84-46.872  c36.288,1.08,47.808,55.008,64.8,54.648c16.992-0.36,30.672-6.264,30.816-58.752C218.563,191.981,87.235,64.973,48.859,43.518  L48.859,43.518L48.859,43.518L48.859,43.518z"
     id="path3457"
     style="fill:#f9f9f9" /><path
     fill-rule="evenodd"
     clip-rule="evenodd"
     d="M162.763,168.726c7.992,13.464,28.368,3.096,29.232-12.096  c0.864-15.192-1.368-34.344-11.232-35.064c-9.864-0.72-16.92-10.584-26.784-11.304c-9.864-0.72-20.448,9.144-25.056-3.96  s12.384-18.648,25.056-20.736c-11.304-11.304-17.928-23.832-22.896-36.864c-4.968-13.032-8.64-24.984,5.256-30.096  c13.896-5.112,12.744,21.168,28.656,33.192c-4.68-17.712-6.408-25.056-6.048-35.352s-0.36-18.144,14.256-16.128  c14.616,2.016,8.28,32.4,19.656,44.784c3.456-11.736,5.544-26.64,13.896-32.76s27.36-6.264,15.264,18.864  c-12.096,25.128,3.528,38.736-0.144,58.536c-3.672,19.8-15.048,16.2-19.944,28.944c-4.896,12.744,2.88,41.76-6.336,54.792  c-9.216,13.032-10.872,33.048-4.896,49.032C172.339,205.374,162.763,168.726,162.763,168.726L162.763,168.726L162.763,168.726  L162.763,168.726z"
     id="path3459"
     style="fill:#f9f9f9" /><path
     fill-rule="evenodd"
     clip-rule="evenodd"
     d="M48.355,185.646c-7.416,50.832-33.192,56.88-34.488,77.976  c-1.296,21.096,6.84,23.112,6.336,42.624c-0.504,19.512-17.856,27.432-19.944,38.016s8.928,13.968,15.336,13.968  c6.408,0,12.816-28.08,15.408-45.936s-8.496-28.368-8.496-40.608c0-12.24,16.056-34.632,13.104-14.976  C48.931,235.686,55.268,208.901,48.355,185.646L48.355,185.646L48.355,185.646L48.355,185.646z"
     id="path3461"
     style="fill:#f9f9f9" /><path
     fill-rule="evenodd"
     clip-rule="evenodd"
     fill="#FFFFFF"
     d="M58.292,205.013c-5.616,27.504-40.68,181.08-22.824,183.024  c17.856,1.944,43.272-47.52,84.888-47.16c41.688,0.36,58.104,55.44,68.256,55.08c10.152-0.36,16.848,3.6,17.928-58.464  c1.08-62.064-36.792-141.336-59.184-176.256C116.971,163.181,84.283,187.518,58.292,205.013L58.292,205.013L58.292,205.013  L58.292,205.013z"
     id="path3463"
     style="fill:#ffffff;opacity:0.36111111" /></svg>