<?xml version="1.0" encoding="utf-8"?>
<!-- Generator: Adobe Illustrator 18.0.0, SVG Export Plug-In . SVG Version: 6.00 Build 0)  -->
<!DOCTYPE svg PUBLIC "-//W3C//DTD SVG 1.1//EN" "http://www.w3.org/Graphics/SVG/1.1/DTD/svg11.dtd">
<svg version="1.1" id="Layer_1" xmlns="http://www.w3.org/2000/svg" xmlns:xlink="http://www.w3.org/1999/xlink" x="0px" y="0px"
	 viewBox="0 0 252 385" enable-background="new 0 0 252 385" xml:space="preserve">
<g id="Layer_1_1_">
	<g id="hexagons.psd_1_">
		
			<image overflow="visible" enable-background="new    " width="252" height="385" id="Layer_1_2_" xlink:href="801D8127C5A044D5.png" >
		</image>
		
			<image overflow="visible" enable-background="new    " width="252" height="384" id="Layer_0_1_" xlink:href="801D8127C5A044DB.png"  transform="matrix(1 0 0 1 0 1)">
		</image>
	</g>
</g>
<g id="Layer_2">
	<rect x="-13.3" y="-7.9" fill="#15A9CE" width="276.7" height="402.4"/>
	<polygon fill="#0B5567" points="35.2,179 2.2,121 35.2,63 101.2,63 134.2,121 101.2,179 	"/>
	<polygon fill="#107F9B" points="48.4,156 28.6,121 48.4,86 88,86 107.8,121 88,156 	"/>
	<polygon fill="#0B5567" points="35.2,313 2.2,255 35.2,197 101.2,197 134.2,255 101.2,313 	"/>
	<polygon fill="#107F9B" points="48.4,290 28.6,255 48.4,220 88,220 107.8,255 88,290 	"/>
	<polygon fill="#0B5567" points="151.2,117 118.2,59 151.2,1 217.2,1 250.2,59 217.2,117 	"/>
	<polygon fill="#107F9B" points="164.4,94 144.6,59 164.4,24 204,24 223.8,59 204,94 	"/>
	<polygon fill="#0B5567" points="151.2,250 118.2,192 151.2,134 217.2,134 250.2,192 217.2,250 	"/>
	<polygon fill="#107F9B" points="164.4,227 144.6,192 164.4,157 204,157 223.8,192 204,227 	"/>
	<polygon fill="#0B5567" points="151.2,385 118.2,327 151.2,269 217.2,269 250.2,327 217.2,385 	"/>
	<polygon fill="#107F9B" points="164.4,362 144.6,327 164.4,292 204,292 223.8,327 204,362 	"/>
	<g>
		<g>
			<defs>
				<polygon id="SVGID_1_" points="48.4,290 28.6,255 48.4,220 88,220 107.8,255 88,290 				"/>
			</defs>
			<clipPath id="SVGID_2_">
				<use xlink:href="#SVGID_1_"  overflow="visible"/>
			</clipPath>
			<rect x="26.3" y="261.7" clip-path="url(#SVGID_2_)" fill="#FFFFFF" width="84.2" height="33.3"/>
		</g>
		<g>
			<defs>
				<polygon id="SVGID_3_" points="48.4,290 28.6,255 48.4,220 88,220 107.8,255 88,290 				"/>
			</defs>
			<clipPath id="SVGID_4_">
				<use xlink:href="#SVGID_3_"  overflow="visible"/>
			</clipPath>
			
				<circle clip-path="url(#SVGID_4_)" fill="#FFFFFF" stroke="#107F9B" stroke-width="4" stroke-miterlimit="10" cx="68.5" cy="257.3" r="16.3"/>
		</g>
	</g>
	<g>
		<g>
			<defs>
				<polygon id="SVGID_5_" points="164.4,227 144.6,192 164.4,157 204,157 223.8,192 204,227 				"/>
			</defs>
			<clipPath id="SVGID_6_">
				<use xlink:href="#SVGID_5_"  overflow="visible"/>
			</clipPath>
			<path id="cloud-back" clip-path="url(#SVGID_6_)" fill="#A1DDEB" d="M212.8,193.6c-9.5-5.5-16.8-1.1-19,6.6
				c-0.4-6.6-5.8-18.3-21.5-13.9c-2.2-5.5-6.2-5.5-9.9-0.7c-2.4-3-11.7-4.7-18.3,2.4c-0.2,1.7-0.3,3.5-0.3,5.3
				c0,10.7,4.2,20.8,11.8,28.4c7.6,7.6,17.7,11.8,28.4,11.8s20.8-4.2,28.4-11.8c7.6-7.6,11.8-17.7,11.8-28.4c0-1.6-0.1-3.2-0.3-4.8
				C220.5,187.2,216.1,187.9,212.8,193.6z"/>
		</g>
		<g>
			<defs>
				<polygon id="SVGID_7_" points="164.4,227 144.6,192 164.4,157 204,157 223.8,192 204,227 				"/>
			</defs>
			<clipPath id="SVGID_8_">
				<use xlink:href="#SVGID_7_"  overflow="visible"/>
			</clipPath>
			<path id="cloud-front" clip-path="url(#SVGID_8_)" fill="#FFFFFF" d="M196.1,204.6c-6.2-13.1-18.6-7.3-21.9,1.5
				c-6.6-8-19.2-10.7-29.6-5.4c1.5,7.9,5.3,15.2,11.1,21c7.6,7.6,17.7,11.8,28.4,11.8s20.8-4.2,28.4-11.8c5.8-5.8,9.5-13,11-20.8
				C215.9,195.9,206.4,193.9,196.1,204.6z"/>
		</g>
	</g>
	<g>
		<g>
			<defs>
				<polygon id="SVGID_9_" points="164.4,362 144.6,327 164.4,292 204,292 223.8,327 204,362 				"/>
			</defs>
			<clipPath id="SVGID_10_">
				<use xlink:href="#SVGID_9_"  overflow="visible"/>
			</clipPath>
			<g clip-path="url(#SVGID_10_)">
				<g>
					<path fill="#FFFFFF" d="M169.6,296.8v20.5c0,0.9-0.7,1.6-1.6,1.6l0,0c-0.9,0-1.6-0.7-1.6-1.6v-20.5c0-0.9,0.7-1.6,1.6-1.6l0,0
						C168.9,295.2,169.6,295.9,169.6,296.8z"/>
					<circle fill="#FFFFFF" cx="168.1" cy="295.5" r="6.2"/>
					<circle fill="#FFFFFF" stroke="#107F9B" stroke-width="1.4648" stroke-miterlimit="10" cx="168.1" cy="295.5" r="4.3"/>
				</g>
				<g>
					<path fill="#FFFFFF" d="M205,353.7l-14.5-14.5c-0.6-0.6-0.6-1.6,0-2.2l0,0c0.6-0.6,1.6-0.6,2.2,0l14.5,14.5
						c0.6,0.6,0.6,1.6,0,2.2l0,0C206.7,354.4,205.6,354.4,205,353.7z"/>
					<circle fill="#FFFFFF" cx="207" cy="353.6" r="6.2"/>
					<circle fill="#FFFFFF" stroke="#107F9B" stroke-width="1.4648" stroke-miterlimit="10" cx="207" cy="353.6" r="4.3"/>
				</g>
				<g>
					
						<rect x="186.2" y="308.9" transform="matrix(-0.7071 0.7071 -0.7071 -0.7071 557.6273 389.9658)" fill="#FFFFFF" width="23.7" height="3.2"/>
					<path fill="#FFFFFF" d="M207.5,296.2c6.7,1.8,6.7,10.6,0,12.4c-0.8,0.2-1.6,0.2-2.4,0c-6.7-1.8-6.7-10.6,0-12.4
						C205.9,296,206.7,296,207.5,296.2z"/>
					<path fill="#FFFFFF" stroke="#107F9B" stroke-width="1.4648" stroke-miterlimit="10" d="M206.9,298c4.9,1.2,4.9,7.5,0,8.7
						c-0.4,0.1-0.8,0.1-1.2,0c-4.9-1.2-4.9-7.5,0-8.7C206.1,297.9,206.5,297.9,206.9,298z"/>
				</g>
				<g>
					<rect x="189.5" y="317.2" fill="#FFFFFF" width="3.2" height="23.7"/>
					<path fill="#FFFFFF" d="M187.7,312.2c6-3.4,12.2,2.7,8.8,8.8c-0.4,0.7-1,1.3-1.7,1.7c-6,3.4-12.2-2.7-8.8-8.8
						C186.4,313.2,187,312.6,187.7,312.2z"/>
					<path fill="#FFFFFF" stroke="#107F9B" stroke-width="1.4648" stroke-miterlimit="10" d="M188.6,313.9c4.3-2.7,8.8,1.9,6.1,6.1
						c-0.2,0.4-0.5,0.7-0.9,0.9c-4.3,2.7-8.8-1.9-6.1-6.1C187.9,314.5,188.2,314.2,188.6,313.9z"/>
				</g>
				<g>
					<path fill="#FFFFFF" d="M190,338.9h-20.5c-0.9,0-1.6-0.7-1.6-1.6l0,0c0-0.9,0.7-1.6,1.6-1.6H190c0.9,0,1.6,0.7,1.6,1.6l0,0
						C191.6,338.2,190.9,338.9,190,338.9z"/>
					<circle fill="#FFFFFF" cx="191.4" cy="337.4" r="6.2"/>
					<circle fill="#FFFFFF" stroke="#107F9B" stroke-width="1.4648" stroke-miterlimit="10" cx="191.4" cy="337.4" r="4.3"/>
				</g>
				<g>
					<path fill="#FFFFFF" d="M169.6,318.8v20.5c0,0.9-0.7,1.6-1.6,1.6l0,0c-0.9,0-1.6-0.7-1.6-1.6v-20.5c0-0.9,0.7-1.6,1.6-1.6l0,0
						C168.9,317.2,169.6,317.9,169.6,318.8z"/>
					<circle fill="#FFFFFF" cx="168.1" cy="317.5" r="6.2"/>
					<circle fill="#FFFFFF" stroke="#107F9B" stroke-width="1.4648" stroke-miterlimit="10" cx="168.1" cy="317.5" r="4.3"/>
				</g>
				<g>
					<path fill="#FFFFFF" d="M166.7,357.3v-20.5c0-0.9,0.7-1.6,1.6-1.6l0,0c0.9,0,1.6,0.7,1.6,1.6v20.5c0,0.9-0.7,1.6-1.6,1.6l0,0
						C167.4,358.9,166.7,358.2,166.7,357.3z"/>
					<circle fill="#FFFFFF" cx="168.1" cy="358.7" r="6.2"/>
					<circle fill="#FFFFFF" stroke="#107F9B" stroke-width="1.4648" stroke-miterlimit="10" cx="168.1" cy="358.7" r="4.3"/>
				</g>
				<g>
					<path fill="#FFFFFF" d="M166.6,338.9h-20.5c-0.9,0-1.6-0.7-1.6-1.6l0,0c0-0.9,0.7-1.6,1.6-1.6h20.5c0.9,0,1.6,0.7,1.6,1.6l0,0
						C168.2,338.2,167.5,338.9,166.6,338.9z"/>
					<circle fill="#FFFFFF" cx="167.9" cy="337.4" r="6.2"/>
					<circle fill="#FFFFFF" stroke="#107F9B" stroke-width="1.4648" stroke-miterlimit="10" cx="167.9" cy="337.4" r="4.3"/>
				</g>
			</g>
		</g>
	</g>
</g>
</svg>
