<?xml version="1.0" encoding="utf-8"?>
<!-- Generator: Adobe Illustrator 20.1.0, SVG Export Plug-In . SVG Version: 6.00 Build 0)  -->
<svg version="1.1" id="Layer_1" xmlns="http://www.w3.org/2000/svg" xmlns:xlink="http://www.w3.org/1999/xlink" x="0px" y="0px"
	 viewBox="0 0 247.2 172.9" style="enable-background:new 0 0 247.2 172.9;" xml:space="preserve">
<style type="text/css">
	.st0{fill:#FF8A65;}
</style>
<g>
	<path class="st0" d="M94.5,122.4c0-9.6,0-19.3,0-28.8c1.4-1.4,2.9-0.9,4.9-0.6c0,8,0,16.1,0,24.3c13,0,25.3,0,38.2,0
		c0-8.1,0-16,0-23.7c1.7-1.4,3.1-1,5-0.5c0,9.7,0,19.5,0,29.3C126.5,122.4,110.5,122.4,94.5,122.4z"/>
	<path class="st0" d="M104.1,106.8c9.3,0,18.7,0,28.1,0c0.8,1.9,0.6,3.6,0.3,5.8c-9.5,0-19,0-28.4,0
		C103.4,110.6,103.4,108.8,104.1,106.8z"/>
	<path class="st0" d="M146.5,79.4c-1.7-9.3-3.3-18.3-5-27.4c1.9-1,3.6-1.5,5.9-1.4c2.4,8.9,3.2,18.1,5.2,27
		C150.9,79.2,148.9,79.1,146.5,79.4z"/>
	<path class="st0" d="M103.8,102.4c0.4-2.3,0.6-3.9,1-6c9.4,0.8,18.8,1.6,28.4,2.5c0.5,2.1,0.5,4-0.6,6.1
		C123.1,104.1,113.8,103.2,103.8,102.4z"/>
	<path class="st0" d="M105.7,89.5c0.7-2.2,0.7-3.9,2.1-5.5c9.1,1.6,18,4.7,27.3,6.8c0.5,2.1-0.7,3.6-1,5.8
		C124.4,94.9,115.4,91.8,105.7,89.5z"/>
	<path class="st0" d="M145,79.3c-1.5,1.8-2.8,3-5.2,3.3c-5.2-7.4-10.5-15-15.7-22.4c1.3-2,2.9-2.7,4.9-3.8
		C134.4,64.1,139.7,71.8,145,79.3z"/>
	<path class="st0" d="M138.6,83.7c-0.2,2.4-1.4,3.7-3.1,5.3c-7.9-4.5-16-9.1-23.9-13.7c-0.1-2.4,1.3-3.6,2.8-5.4
		C122.5,74.5,130.6,79.1,138.6,83.7z"/>
</g>
</svg>
