<svg id="reactive-summit-logo" xmlns="http://www.w3.org/2000/svg" viewBox="0 0 820 300"><title>reactive-summit-color-reverse</title><g id="reactive-summit-2016-icon"><g id="icon"><path id="white-ring" d="M149,8A141,141,0,1,1,8,149,141,141,0,0,1,149,8m0-8A149,149,0,0,0,43.64,254.36,149,149,0,0,0,254.36,43.64,148,148,0,0,0,149,0Z" style="fill:#fff"/><g id="blue-circle-bg-3"><path d="M62,122.56q9.94,0,21.07-.71a66.3,66.3,0,0,0,20.13-4.27,34.79,34.79,0,0,0,14.91-11.12Q124,98.89,124,85.15q0-12.8-5.21-20.37a34.9,34.9,0,0,0-13.26-11.6,58.72,58.72,0,0,0-18.47-5.44A150.07,150.07,0,0,0,66.7,46.32H64.47a132.92,132.92,0,0,0-45.84,76.24Z" style="fill:#009cbd"/></g><g id="blue-circle-bg-2"><path d="M54.87,185.06H21A133.31,133.31,0,0,0,100.86,273Z" style="fill:#009cbd"/></g><g id="blue-circle-bg-1"><path d="M178.91,19.38a88.14,88.14,0,0,1,11.62,17.23q10.18,19.67,10.18,49,0,35.52-18.46,60.38t-54,31.49l59.47,98.77a133,133,0,0,0-8.82-256.88Z" style="fill:#009cbd"/></g><g id="cropped-r"><path d="M64.47,46.32H66.7a150.07,150.07,0,0,1,20.36,1.42,58.72,58.72,0,0,1,18.47,5.44,34.9,34.9,0,0,1,13.26,11.6Q124,72.37,124,85.15q0,13.74-5.92,21.31a34.79,34.79,0,0,1-14.91,11.12A66.3,66.3,0,0,1,83,121.85q-11.13.7-21.07.71H18.63A134,134,0,0,0,21,185.06H54.87l46,87.95a133.45,133.45,0,0,0,86.87,3.25l-59.47-98.77q35.52-6.63,54-31.49t18.46-60.38q0-29.36-10.18-49a88.14,88.14,0,0,0-11.62-17.23A133.24,133.24,0,0,0,64.47,46.32Z" style="fill:#fff"/></g></g></g><g id="reacitve-summit-2016-text"><g id="reactive"><path d="M339.39,72.25h27.67a48.55,48.55,0,0,1,10.35,1.06A24.43,24.43,0,0,1,386,76.84a17.68,17.68,0,0,1,5.86,6.67A22.66,22.66,0,0,1,394,94a21,21,0,0,1-3.94,12.88q-3.94,5.3-11.52,6.71l18.18,30.2H377.87l-14.95-28.58h-7.78v28.58H339.39Zm15.75,29.59h9.29q2.13,0,4.5-.15a14.2,14.2,0,0,0,4.29-.91,7.5,7.5,0,0,0,3.18-2.37,7.26,7.26,0,0,0,1.26-4.55A7,7,0,0,0,373.73,87a12.61,12.61,0,0,0-3.94-1.16,32.58,32.58,0,0,0-4.35-.3h-10.3Z" style="fill:#fff"/><path d="M405.44,72.25H454V86.79H421.2v13.33h31v14.55h-31v14.54h34.64v14.54h-50.4Z" style="fill:#fff"/><path d="M492,72.25h13l31.11,71.5H518.36L512.2,128.6H484.42l-6,15.15H461.09Zm6.06,20.8-8.69,22.22h17.47Z" style="fill:#fff"/><path d="M581.82,90.83a15.57,15.57,0,0,0-5.71-4.34A19,19,0,0,0,568.28,85a19.61,19.61,0,0,0-14.8,6.52,22.25,22.25,0,0,0-4.34,7.32,28,28,0,0,0,0,18.43,22.93,22.93,0,0,0,4.29,7.27,19.33,19.33,0,0,0,6.42,4.8,18.45,18.45,0,0,0,7.93,1.72,17.71,17.71,0,0,0,8.58-2,17,17,0,0,0,6.16-5.66l13.13,9.8a27.38,27.38,0,0,1-11.51,9.39,35.65,35.65,0,0,1-14.34,3A44.13,44.13,0,0,1,554.34,143a35.39,35.39,0,0,1-12.22-7.53,34.1,34.1,0,0,1-8-11.87A40.34,40.34,0,0,1,531.21,108a40.34,40.34,0,0,1,2.88-15.55,34.1,34.1,0,0,1,8-11.87,35.54,35.54,0,0,1,12.22-7.53,44.13,44.13,0,0,1,15.46-2.62,37.84,37.84,0,0,1,6.31.55,33.85,33.85,0,0,1,6.46,1.77A29.15,29.15,0,0,1,588.68,76a24.31,24.31,0,0,1,5.25,5Z" style="fill:#fff"/><path d="M619.47,86.18h-20.4V72.25h56.56V86.18h-20.4v57.57H619.47Z" style="fill:#fff"/><path d="M663.41,72.25h15.75v71.5H663.41Z" style="fill:#fff"/><path d="M686.44,72.25h18l17.68,46.86h.2l18-46.86h16.87l-29.5,71.5H715Z" style="fill:#fff"/><path d="M765.22,72.25H813.8V86.79H781v13.33h31v14.55H781v14.54h34.64v14.54H765.22Z" style="fill:#fff"/></g></g><path d="M342,214.94a16.91,16.91,0,0,0,6.75,6.7,19.79,19.79,0,0,0,9.45,2.2,18.83,18.83,0,0,0,6.2-1,16,16,0,0,0,5.05-2.8,13.29,13.29,0,0,0,3.4-4.35,13,13,0,0,0,1.25-5.75,11.07,11.07,0,0,0-1.55-6.1,12.48,12.48,0,0,0-4.15-4,30.84,30.84,0,0,0-5.85-2.65c-2.17-.73-4.4-1.47-6.7-2.2s-4.54-1.57-6.7-2.5a22.25,22.25,0,0,1-5.85-3.65,16.12,16.12,0,0,1-4.15-5.65,20.13,20.13,0,0,1-1.55-8.4,18.13,18.13,0,0,1,1.85-8.35,17.79,17.79,0,0,1,5-6.1,22.19,22.19,0,0,1,7.25-3.7,29.42,29.42,0,0,1,8.6-1.25A27.78,27.78,0,0,1,371,157.49a20.45,20.45,0,0,1,8.55,6.85l-5.7,4.1a15.72,15.72,0,0,0-13.8-7,21.41,21.41,0,0,0-6.1.85,15.21,15.21,0,0,0-5.05,2.5,12.13,12.13,0,0,0-3.45,4.15,12.59,12.59,0,0,0-1.3,5.9q0,5.29,2.7,8.15a19,19,0,0,0,6.75,4.5,70.93,70.93,0,0,0,8.8,2.9,42.56,42.56,0,0,1,8.8,3.35,19,19,0,0,1,6.75,5.85q2.7,3.75,2.7,10.35a19.21,19.21,0,0,1-1.8,8.5,18.71,18.71,0,0,1-4.85,6.25,21.16,21.16,0,0,1-7.05,3.85,26.93,26.93,0,0,1-8.3,1.3,33.35,33.35,0,0,1-12.9-2.45,23.52,23.52,0,0,1-10.1-8.25Z" style="fill:#fff"/><path d="M466,200.94a45.13,45.13,0,0,1-1.3,10.9,25.08,25.08,0,0,1-4.35,9.2,21.85,21.85,0,0,1-8,6.4,32,32,0,0,1-24.3,0,21.77,21.77,0,0,1-8-6.4,24.76,24.76,0,0,1-4.35-9.2,44.64,44.64,0,0,1-1.3-10.9v-43.7H421v42a50.21,50.21,0,0,0,.7,8.1,24.26,24.26,0,0,0,2.75,8,16.83,16.83,0,0,0,5.8,6.1q3.75,2.4,9.95,2.4t9.95-2.4a16.91,16.91,0,0,0,5.8-6.1,24.73,24.73,0,0,0,2.75-8,51.38,51.38,0,0,0,.7-8.1v-42H466Z" style="fill:#fff"/><path d="M503.39,157.24h9.89l25.8,59.4,25.81-59.4h9.39V228h-6.59v-62.4h-.2l-27,62.4h-2.91l-27.39-62.4H510V228h-6.6Z" style="fill:#fff"/><path d="M612.28,157.24h9.9l25.8,59.4,25.8-59.4h9.4V228h-6.6v-62.4h-.2l-27,62.4h-2.9l-27.4-62.4h-.2V228h-6.6Z" style="fill:#fff"/><path d="M721.88,157.24h6.6V228h-6.6Z" style="fill:#fff"/><path d="M783.58,163.24h-24.2v-6h55v6h-24.2V228h-6.6Z" style="fill:#fff"/></svg>